<svg width="32" height="32" viewBox="0 0 32 32" fill="none" xmlns="http://www.w3.org/2000/svg">
<path d="M15.9998 0.166672C7.25984 0.166672 0.166504 7.26001 0.166504 16C0.166504 24.74 7.25984 31.8333 15.9998 31.8333C24.7398 31.8333 31.8332 24.74 31.8332 16C31.8332 7.26001 24.7398 0.166672 15.9998 0.166672ZM8.19401 25.9433C8.87484 24.5183 13.0232 23.125 15.9998 23.125C18.9765 23.125 23.1407 24.5183 23.8057 25.9433C21.6523 27.6533 18.9448 28.6667 15.9998 28.6667C13.0548 28.6667 10.3473 27.6533 8.19401 25.9433ZM26.0698 23.6475C23.8057 20.8925 18.3115 19.9583 15.9998 19.9583C13.6882 19.9583 8.194 20.8925 5.92984 23.6475C4.31484 21.5258 3.33317 18.8817 3.33317 16C3.33317 9.01751 9.01734 3.33334 15.9998 3.33334C22.9823 3.33334 28.6665 9.01751 28.6665 16C28.6665 18.8817 27.6848 21.5258 26.0698 23.6475ZM15.9998 6.50001C12.9282 6.50001 10.4582 8.97001 10.4582 12.0417C10.4582 15.1133 12.9282 17.5833 15.9998 17.5833C19.0715 17.5833 21.5415 15.1133 21.5415 12.0417C21.5415 8.97001 19.0715 6.50001 15.9998 6.50001ZM15.9998 14.4167C14.6857 14.4167 13.6248 13.3558 13.6248 12.0417C13.6248 10.7275 14.6857 9.66667 15.9998 9.66667C17.314 9.66667 18.3748 10.7275 18.3748 12.0417C18.3748 13.3558 17.314 14.4167 15.9998 14.4167Z" fill="white"/>
</svg>