<svg width="38" height="38" viewBox="0 0 38 38" fill="none" xmlns="http://www.w3.org/2000/svg">
<g clip-path="url(#clip0)">
<path d="M38 2.23529H33.5147L33.5294 5.95631L31.2941 5.96525L31.2794 2.23976L24.5882 2.23529L24.603 5.95631L22.3677 5.96525L22.3529 2.23976L15.6471 2.23529L15.6618 5.95631L13.4265 5.96525L13.4118 2.23976L6.69113 2.23529L6.70588 5.95631L4.47059 5.96525L4.45584 2.23976L0 2.23529V7.82352H38V2.23529Z" fill="white"/>
<path d="M20.1177 20.1176H27.9412V27.9412H20.1177V20.1176Z" fill="white"/>
<path d="M10.0586 10.0588H17.8821V17.8823H10.0586V10.0588Z" fill="white"/>
<path d="M20.1177 10.0588H27.9412V17.8823H20.1177V10.0588Z" fill="white"/>
<path d="M0 30.1765H7.82353V38H0V30.1765Z" fill="white"/>
<path d="M0 20.1176H7.82353V27.9412H0V20.1176Z" fill="white"/>
<path d="M30.1763 20.1176H37.9998V27.9412H30.1763V20.1176Z" fill="white"/>
<path d="M4.4707 -7.62939e-06H6.706V2.23529H4.4707V-7.62939e-06Z" fill="white"/>
<path d="M13.4116 -7.62939e-06H15.6469V2.23529H13.4116V-7.62939e-06Z" fill="white"/>
<path d="M22.353 -7.62939e-06H24.5883V2.23529H22.353V-7.62939e-06Z" fill="white"/>
<path d="M31.2939 -7.62939e-06H33.5292V2.23529H31.2939V-7.62939e-06Z" fill="white"/>
<path d="M30.1763 30.1765V38H37.9998V30.1765H30.1763ZM35.2057 35.2059H32.9704V32.9706H35.2057V35.2059Z" fill="white"/>
<path d="M10.0586 30.1765V38H17.8821V30.1765H10.0586ZM15.088 35.2059H12.8527V32.9706H15.088V35.2059Z" fill="white"/>
</g>
<defs>
<clipPath id="clip0">
<rect width="38" height="38" fill="white"/>
</clipPath>
</defs>
</svg>